<mxfile host="app.diagrams.net" modified="2024-01-17T12:14:43.174Z" agent="Mozilla/5.0 (Windows NT 10.0; Win64; x64) AppleWebKit/537.36 (KHTML, like Gecko) Chrome/119.0.0.0 Safari/537.36" etag="rNE2FgVhgywpnRhOJqV5" version="22.1.20" type="github">
  <diagram name="第 1 页" id="EOTKnkSvtF02M2kYfvMW">
    <mxGraphModel dx="1050" dy="557" grid="1" gridSize="10" guides="1" tooltips="1" connect="1" arrows="1" fold="1" page="1" pageScale="1" pageWidth="827" pageHeight="1169" math="0" shadow="0">
      <root>
        <mxCell id="0" />
        <mxCell id="1" parent="0" />
        <mxCell id="E4jvXmTgmYsQPxOmz0q2-3" style="edgeStyle=orthogonalEdgeStyle;rounded=0;orthogonalLoop=1;jettySize=auto;html=1;exitX=1;exitY=0.5;exitDx=0;exitDy=0;entryX=0;entryY=0.5;entryDx=0;entryDy=0;" edge="1" parent="1" source="E4jvXmTgmYsQPxOmz0q2-1" target="E4jvXmTgmYsQPxOmz0q2-2">
          <mxGeometry relative="1" as="geometry" />
        </mxCell>
        <mxCell id="E4jvXmTgmYsQPxOmz0q2-1" value="脾" style="ellipse;whiteSpace=wrap;html=1;fontSize=14;" vertex="1" parent="1">
          <mxGeometry x="150" y="190" width="80" height="50" as="geometry" />
        </mxCell>
        <mxCell id="E4jvXmTgmYsQPxOmz0q2-6" style="edgeStyle=orthogonalEdgeStyle;rounded=0;orthogonalLoop=1;jettySize=auto;html=1;exitX=1;exitY=0.5;exitDx=0;exitDy=0;entryX=0;entryY=0.5;entryDx=0;entryDy=0;" edge="1" parent="1" source="E4jvXmTgmYsQPxOmz0q2-2" target="E4jvXmTgmYsQPxOmz0q2-5">
          <mxGeometry relative="1" as="geometry" />
        </mxCell>
        <mxCell id="E4jvXmTgmYsQPxOmz0q2-7" value="气化作用" style="edgeLabel;html=1;align=center;verticalAlign=middle;resizable=0;points=[];fontSize=14;" vertex="1" connectable="0" parent="E4jvXmTgmYsQPxOmz0q2-6">
          <mxGeometry x="-0.1378" y="3" relative="1" as="geometry">
            <mxPoint as="offset" />
          </mxGeometry>
        </mxCell>
        <mxCell id="E4jvXmTgmYsQPxOmz0q2-2" value="心、肺" style="ellipse;whiteSpace=wrap;html=1;fontSize=14;" vertex="1" parent="1">
          <mxGeometry x="340" y="190" width="80" height="50" as="geometry" />
        </mxCell>
        <mxCell id="E4jvXmTgmYsQPxOmz0q2-4" value="水谷精微" style="rounded=1;whiteSpace=wrap;html=1;fontSize=14;" vertex="1" parent="1">
          <mxGeometry x="250" y="190" width="60" height="20" as="geometry" />
        </mxCell>
        <mxCell id="E4jvXmTgmYsQPxOmz0q2-5" value="血" style="ellipse;whiteSpace=wrap;html=1;fontSize=14;" vertex="1" parent="1">
          <mxGeometry x="510" y="190" width="80" height="50" as="geometry" />
        </mxCell>
      </root>
    </mxGraphModel>
  </diagram>
</mxfile>
